<?xml version="1.0" encoding="utf-8"?>
<!-- Generator: Adobe Illustrator 25.2.3, SVG Export Plug-In . SVG Version: 6.00 Build 0)  -->
<svg version="1.1" id="Layer_1" xmlns="http://www.w3.org/2000/svg" xmlns:xlink="http://www.w3.org/1999/xlink" x="0px" y="0px"
	 viewBox="0 0 2560 1080" enable-background="new 0 0 2560 1080" xml:space="preserve">
<g id="Page_x40_2">
	<g>
		<rect fill="#FFFFFF" width="2560" height="1080"/>
		<g>
			<defs>
				<rect id="SVGID_1_" x="711.4" width="1071.9" height="1080"/>
			</defs>
			<clipPath id="SVGID_2_">
				<use xlink:href="#SVGID_1_"  overflow="visible"/>
			</clipPath>
			<g clip-path="url(#SVGID_2_)">
				
					<image overflow="visible" width="3024" height="3398" xlink:href="assets/p3.jpg"  transform="matrix(0.3545 0 0 0.3545 711.3688 -99.6523)">
				</image>
			</g>
		</g>
		<rect fill="#F0F1EE" width="863" height="1080"/>
		<rect x="1600.9" fill="#EFEEEA" width="959.1" height="1080"/>
		<rect x="1568.8" fill="#E6E5E1" width="32.1" height="134.9"/>
	</g>
	<g id="in::_x2A_::GameSet_x28_DragSlot_x2C_succ_x29_">
		<g id="DragSlot::DragGroup">
			<g id="DragSlot::G10">
				<image overflow="visible" width="80" height="66" xlink:href="CCA5E7C1D4B3B941.png"  transform="matrix(1 0 0 1 931 319)">
				</image>
				<image overflow="visible" width="80" height="65" xlink:href="CCA5E7C1D4B3B947.png"  transform="matrix(1 0 0 1 1192 198)">
				</image>
			</g>
			<g id="DragSlot::G9">
				<image overflow="visible" width="100" height="112" xlink:href="CCA5E7C1D4B3B940.png"  transform="matrix(1 0 0 1 917 391)">
				</image>
				<image overflow="visible" width="100" height="112" xlink:href="CCA5E7C1D4B3B943.png"  transform="matrix(1 0 0 1 1197 397)">
				</image>
			</g>
			<g id="DragSlot::G8">
				<image overflow="visible" width="113" height="65" xlink:href="CCA5E7C1D4B3B94F.png"  transform="matrix(1 0 0 1 909 508)">
				</image>
				<image overflow="visible" width="278" height="162" xlink:href="CCA5E7C1D4B3B942.png"  transform="matrix(1 0 0 1 1074 487)">
				</image>
			</g>
			<g id="DragSlot::G7">
				<image overflow="visible" width="117" height="140" xlink:href="CCA5E7C1D4B3B945.png"  transform="matrix(1 0 0 1 910 584)">
				</image>
				<image overflow="visible" width="294" height="355" xlink:href="CCA5E7C1D4B3B946.png"  transform="matrix(1 0 0 1 1085 618)">
				</image>
			</g>
			<g id="DragSlot::G6">
				<image overflow="visible" width="69" height="73" xlink:href="93FA7F03BDF9C6B0.png"  transform="matrix(1 0 0 1 928 726)">
				</image>
				<image overflow="visible" width="116" height="124" xlink:href="93FA7F03BDF9C6B7.png"  transform="matrix(1 0 0 1 1174 874)">
				</image>
			</g>
			<g id="DragSlot::G5">
				<image overflow="visible" width="109" height="143" xlink:href="93FA7F03BDF9C6B1.png"  transform="matrix(1 0 0 1 1452 332)">
				</image>
				<image overflow="visible" width="296" height="388" xlink:href="93FA7F03BDF9C6B3.png"  transform="matrix(1 0 0 1 1084 221)">
				</image>
			</g>
			<g id="DragSlot::G4">
				<image overflow="visible" width="114" height="114" xlink:href="93FA7F03BDF9C6AE.png"  transform="matrix(1 0 0 1 1449 459)">
				</image>
				<image overflow="visible" width="114" height="114" xlink:href="93FA7F03BDF9C6AF.png"  transform="matrix(1 0 0 1 1257 551)">
				</image>
			</g>
			<g id="DragSlot::G3">
				<image overflow="visible" width="112" height="48" xlink:href="93FA7F03BDF9C6D0.png"  transform="matrix(1 0 0 1 1449 584)">
				</image>
				<image overflow="visible" width="163" height="86" xlink:href="93FA7F03BDF9C6D3.png"  transform="matrix(1 0 0 1 1135 592)">
				</image>
			</g>
			<g id="DragSlot::G2">
				<image overflow="visible" width="77" height="59" xlink:href="93FA7F03BDF9C6D1.png"  transform="matrix(1 0 0 1 1472 641)">
				</image>
				<image overflow="visible" width="77" height="59" xlink:href="93FA7F03BDF9C6D7.png"  transform="matrix(1 0 0 1 1291 604)">
				</image>
			</g>
			<g id="DragSlot::G1_1_">
				<image overflow="visible" width="125" height="125" xlink:href="93FA7F03BDF9C6CB.png"  transform="matrix(1 0 0 1 1438 704)">
				</image>
				<image overflow="visible" width="288" height="288" xlink:href="93FA7F03BDF9C6F5.png"  transform="matrix(1 0 0 1 1088 641)">
				</image>
			</g>
		</g>
		<g id="DragSlot::WinPop_1_">
			
				<rect id="_x3C_Rectangle_x3E__3_" x="818.5" y="179.6" fill="#C1C2D3" stroke="#6B1E3E" stroke-miterlimit="10" width="923.1" height="720.8"/>
			<path id="ConnectLine::BackButton_3_" fill="#1E2668" d="M1280,855.7L1280,855.7c-35.8,0-64.9-29-64.9-64.9l0,0
				c0-35.8,29.1-64.9,64.9-64.9l0,0c35.8,0,64.9,29,64.9,64.9l0,0C1344.9,826.7,1315.8,855.7,1280,855.7z"/>
		</g>
	</g>
	<g id="in::_x2A_::PagePrev_x28__x29_">
		<rect x="1192.8" y="-11.7" fill="#FFFFFF" fill-opacity="0" width="174.4" height="109.3"/>
		<polygon points="1280,20.9 1242.2,66.4 1317.8,66.4 		"/>
	</g>
</g>
<g id="Page_x40_1_1_">
	<rect fill="#FFFFFF" width="2560" height="1080"/>
	<g id="in::_x2A_::PageNext_x28__x29__2_">
		<rect x="1192.8" y="970.7" fill="#FFFFFF" fill-opacity="0" width="174.4" height="109.3"/>
		<polygon points="1280,1047.4 1317.8,1001.9 1242.2,1001.9 		"/>
	</g>
	<g id="in::_x2A_::PagePrev_x28__x29__1_">
		<rect x="1192.8" y="-11.7" fill="#FFFFFF" fill-opacity="0" width="174.4" height="109.3"/>
		<polygon points="1280,20.9 1242.2,66.4 1317.8,66.4 		"/>
	</g>
	<g id="in::_x2A_::GameSet_x28_RadiationDrag_x2C_horizontal_x2C_0_x2C_500_x29__1_">
		<g opacity="0.89">
			<g>
				<defs>
					<rect id="SVGID_3_" x="628.2" y="87.8" width="444.9" height="835.5"/>
				</defs>
				<clipPath id="SVGID_4_">
					<use xlink:href="#SVGID_3_"  overflow="visible"/>
				</clipPath>
				<g clip-path="url(#SVGID_4_)">
					
						<image overflow="visible" enable-background="new    " width="638" height="388" xlink:href="assets/p2.png"  transform="matrix(2.1533 0 0 2.1533 628.1481 87.8481)">
					</image>
				</g>
			</g>
		</g>
		<g opacity="0.85">
			<g>
				<defs>
					<rect id="SVGID_5_" x="674.6" y="87.8" width="367.2" height="835.5"/>
				</defs>
				<clipPath id="SVGID_6_">
					<use xlink:href="#SVGID_5_"  overflow="visible"/>
				</clipPath>
				<g clip-path="url(#SVGID_6_)">
					
						<image overflow="visible" enable-background="new    " width="638" height="388" xlink:href="assets/p2.png"  transform="matrix(2.1533 0 0 2.1533 179.0584 87.8481)">
					</image>
				</g>
			</g>
		</g>
		<g opacity="0.94">
			<g>
				<defs>
					<rect id="SVGID_7_" x="674.6" y="87.8" width="349.7" height="835.5"/>
				</defs>
				<clipPath id="SVGID_8_">
					<use xlink:href="#SVGID_7_"  overflow="visible"/>
				</clipPath>
				<g clip-path="url(#SVGID_8_)">
					
						<image overflow="visible" enable-background="new    " width="638" height="388" xlink:href="assets/p2.png"  transform="matrix(2.1533 0 0 2.1533 -272.5498 87.8481)">
					</image>
				</g>
			</g>
		</g>
	</g>
	
		<g id="in::sContent::ActClickHide_x28_sContent_x29_::ActClickShow_x28_starter_x29_::transition_x3D_ease_x2A_0.5_1_" opacity="0">
		<rect x="1593.7" y="130.3" fill="#2B60E2" width="40.8" height="40.8"/>
		<rect x="1876.1" y="130.3" fill="#E02DAD" width="40.8" height="40.8"/>
		<g>
			
				<image overflow="visible" opacity="0.75" width="358" height="153" xlink:href="93FA7F03BDF9C6FD.png"  transform="matrix(1 0 0 1 1585 208)">
			</image>
			<g>
				<rect x="1593.7" y="216.6" fill="#FFFFFF" width="326.3" height="122.1"/>
			</g>
		</g>
		<text transform="matrix(1 0 0 1 1649.2582 162.6089)" font-family="'KozGoPr6N-Regular-83pv-RKSJ-H'" font-size="30.1021px">馬拉松生物力學</text>
		<text transform="matrix(1 0 0 1 1608.3627 248.6541)"><tspan x="0" y="0" font-family="'KozGoPr6N-Regular-83pv-RKSJ-H'" font-size="18.4363px">前傾</tspan><tspan x="0" y="22.1" font-family="'KozGoPr6N-Regular-83pv-RKSJ-H'" font-size="18.4363px">Forward Lean</tspan><tspan x="0" y="44.2" font-family="'KozGoPr6N-Regular-83pv-RKSJ-H'" font-size="18.4363px">iowrgheoigh pwegewop rg’piweh ;h </tspan><tspan x="0" y="66.4" font-family="'KozGoPr6N-Regular-83pv-RKSJ-H'" font-size="18.4363px">et iprthgpirhthjert’h</tspan></text>
		<g>
			
				<image overflow="visible" opacity="0.75" width="358" height="153" xlink:href="93FA7F03BDF9C6FF.png"  transform="matrix(1 0 0 1 1585 365)">
			</image>
			<g>
				<rect x="1593.7" y="373.7" fill="#FFFFFF" width="326.3" height="122.1"/>
			</g>
		</g>
		<text transform="matrix(1 0 0 1 1608.3627 405.7751)"><tspan x="0" y="0" font-family="'KozGoPr6N-Regular-83pv-RKSJ-H'" font-size="18.4363px">前傾</tspan><tspan x="0" y="22.1" font-family="'KozGoPr6N-Regular-83pv-RKSJ-H'" font-size="18.4363px">Forward Lean</tspan><tspan x="0" y="44.2" font-family="'KozGoPr6N-Regular-83pv-RKSJ-H'" font-size="18.4363px">iowrgheoigh pwegewop rg’piweh ;h </tspan><tspan x="0" y="66.4" font-family="'KozGoPr6N-Regular-83pv-RKSJ-H'" font-size="18.4363px">et iprthgpirhthjert’h</tspan></text>
		<g>
			
				<image overflow="visible" opacity="0.75" width="358" height="153" xlink:href="93FA7F03BDF9C6FA.png"  transform="matrix(1 0 0 1 1585 522)">
			</image>
			<g>
				<rect x="1593.7" y="530.8" fill="#FFFFFF" width="326.3" height="122.1"/>
			</g>
		</g>
		<text transform="matrix(1 0 0 1 1608.3627 562.8961)"><tspan x="0" y="0" font-family="'KozGoPr6N-Regular-83pv-RKSJ-H'" font-size="18.4363px">前傾</tspan><tspan x="0" y="22.1" font-family="'KozGoPr6N-Regular-83pv-RKSJ-H'" font-size="18.4363px">Forward Lean</tspan><tspan x="0" y="44.2" font-family="'KozGoPr6N-Regular-83pv-RKSJ-H'" font-size="18.4363px">iowrgheoigh pwegewop rg’piweh ;h </tspan><tspan x="0" y="66.4" font-family="'KozGoPr6N-Regular-83pv-RKSJ-H'" font-size="18.4363px">et iprthgpirhthjert’h</tspan></text>
		<g>
			
				<image overflow="visible" opacity="0.75" width="358" height="154" xlink:href="93FA7F03BDF9C6FB.png"  transform="matrix(1 0 0 1 1585 679)">
			</image>
			<g>
				<rect x="1593.7" y="687.9" fill="#FFFFFF" width="326.3" height="122.1"/>
			</g>
		</g>
		<text transform="matrix(1 0 0 1 1608.3627 720.017)"><tspan x="0" y="0" font-family="'KozGoPr6N-Regular-83pv-RKSJ-H'" font-size="18.4363px">前傾</tspan><tspan x="0" y="22.1" font-family="'KozGoPr6N-Regular-83pv-RKSJ-H'" font-size="18.4363px">Forward Lean</tspan><tspan x="0" y="44.2" font-family="'KozGoPr6N-Regular-83pv-RKSJ-H'" font-size="18.4363px">iowrgheoigh pwegewop rg’piweh ;h </tspan><tspan x="0" y="66.4" font-family="'KozGoPr6N-Regular-83pv-RKSJ-H'" font-size="18.4363px">et iprthgpirhthjert’h</tspan></text>
		<g>
			<path fill="#2B60E2" d="M1827.6,902.4H1686c-11.3,0-20.4-9.1-20.4-20.4l0,0c0-11.3,9.1-20.4,20.4-20.4h141.6
				c11.3,0,20.4,9.1,20.4,20.4l0,0C1848.1,893.2,1838.9,902.4,1827.6,902.4z"/>
			
				<text transform="matrix(1 0 0 1 1737.7496 888.833)" fill="#FFFFFF" font-family="'KozGoPr6N-Regular-83pv-RKSJ-H'" font-size="18.8102px">返回</text>
		</g>
	</g>
	<g id="in::starter::ActClickHide_x28_starter_x29_::ActClickShow_x28_sContent_x29_::transition_x3D_ease_x2A_0.5_1_">
		<text transform="matrix(1 0 0 1 1651.939 503.7696)" font-family="'MyriadPro-Regular'" font-size="25.0377px">Wants to know more ?</text>
		<text transform="matrix(1 0 0 1 1680.1938 538.961)" font-family="'KozGoPr6N-Regular-83pv-RKSJ-H'" font-size="25.0377px">想知道更多嗎？</text>
		<linearGradient id="SVGID_9_" gradientUnits="userSpaceOnUse" x1="1674.4957" y1="576.1057" x2="1839.1927" y2="576.1057">
			<stop  offset="0" style="stop-color:#2B60E2"/>
			<stop  offset="1" style="stop-color:#E02DAD"/>
		</linearGradient>
		<path fill="url(#SVGID_9_)" d="M1825.7,597.2H1688c-7.4,0-13.5-6-13.5-13.5v-15.2c0-7.4,6-13.5,13.5-13.5h137.8
			c7.4,0,13.5,6,13.5,13.5v15.2C1839.2,591.2,1833.2,597.2,1825.7,597.2z"/>
		
			<text transform="matrix(1 0 0 1 1734.9653 583.5909)" fill="#FFFFFF" font-family="'KozGoPr6N-Regular-83pv-RKSJ-H'" font-size="21.9808px">按此</text>
	</g>
</g>
<g id="Page_x40_0_1_">
	<rect width="2560" height="1080"/>
	
		<image overflow="visible" enable-background="new    " width="1669" height="1080" xlink:href="assets/p1.png"  transform="matrix(1 0 0 1 331 0)">
	</image>
	<g id="in::_x2A_::PageNext_x28__x29__1_">
		<rect x="1192.8" y="970.7" fill="#FFFFFF" fill-opacity="0" width="174.4" height="109.3"/>
		<polygon fill="#FFFFFF" points="1280,1047.4 1317.8,1001.9 1242.2,1001.9 		"/>
	</g>
</g>
<g id="General">
	<rect id="pageConfig::transition::ease_x2A_0.4" x="2517.2" y="23.2" fill="none" width="18.8" height="18.8"/>
	<rect id="pageConfig::transitionMode::topDownScroll" x="2517.2" y="31" fill="none" width="18.8" height="18.8"/>
	<rect id="audio::succ::success.mp3_1_" x="2517.2" y="49.7" fill="none" width="18.8" height="18.8"/>
	<rect id="audio::fail::fail.mp3" x="2517.2" y="50.9" fill="none" width="18.8" height="18.8"/>
	<rect id="audio::bgm::bgm.mp3_1_" x="2517.2" y="54.8" fill="none" width="18.8" height="18.8"/>
	<rect id="audio::basic::drop.mp3_2_" x="2517.2" y="78.6" fill="none" width="18.8" height="18.8"/>
	<rect x="560" fill="none" stroke="#000000" stroke-miterlimit="10" width="1440" height="1080"/>
</g>
</svg>
