<?xml version="1.0" encoding="utf-8"?>
<!-- Generator: Adobe Illustrator 25.2.3, SVG Export Plug-In . SVG Version: 6.00 Build 0)  -->
<svg version="1.1" id="Layer_1" xmlns="http://www.w3.org/2000/svg" xmlns:xlink="http://www.w3.org/1999/xlink" x="0px" y="0px"
	 viewBox="0 0 2560 1080" enable-background="new 0 0 2560 1080" xml:space="preserve">
<g id="Page_x40_5">
	
		<image overflow="visible" enable-background="new    " width="4471" height="2975" xlink:href="example/ED692EE756160780.png"  transform="matrix(0.2397 0 0 0.2397 744.12 183.4791)">
	</image>
	<g id="in::_x2A_::GameSet_x28_DragSlot_x2C_succ_x29_">
		<g id="DragSlot::DragGroup">
			<g id="DragSlot::G6">
				
					<image overflow="visible" enable-background="new    " width="300" height="421" xlink:href="example/ED692EE756160781.png"  transform="matrix(0.2378 0 0 0.2378 997.8916 533.3854)">
				</image>
				
					<image overflow="visible" enable-background="new    " width="483" height="683" xlink:href="example/ED692EE756160787.png"  transform="matrix(0.2391 0 0 0.2391 1223.2498 633.2965)">
				</image>
			</g>
			<g id="DragSlot::G5">
				
					<image overflow="visible" enable-background="new    " width="308" height="438" xlink:href="example/ED692EE756160782.png"  transform="matrix(0.2378 0 0 0.2378 1505.625 676.0906)">
				</image>
				
					<image overflow="visible" enable-background="new    " width="342" height="483" xlink:href="example/ED692EE756160783.png"  transform="matrix(0.2366 0 0 0.2366 1240.5399 498.819)">
				</image>
			</g>
			<g id="DragSlot::G4">
				
					<image overflow="visible" enable-background="new    " width="204" height="417" xlink:href="example/ED692EE75616078E.png"  transform="matrix(0.2363 0 0 0.2363 1015.4578 681.7723)">
				</image>
				
					<image overflow="visible" enable-background="new    " width="288" height="575" xlink:href="example/ED692EE75616078F.png"  transform="matrix(0.2385 0 0 0.2385 1313.9758 519.551)">
				</image>
			</g>
			<g id="DragSlot::G3">
				
					<image overflow="visible" enable-background="new    " width="200" height="404" xlink:href="example/ED692EE756160784.png"  transform="matrix(0.2371 0 0 0.2371 1511.9252 535.5359)">
				</image>
				
					<image overflow="visible" enable-background="new    " width="283" height="575" xlink:href="example/ED692EE756160785.png"  transform="matrix(0.2388 0 0 0.2388 1179.2852 519.4556)">
				</image>
			</g>
			<g id="DragSlot::G2">
				
					<image overflow="visible" enable-background="new    " width="338" height="383" xlink:href="example/5033C76F712F15DF.png"  transform="matrix(0.239 0 0 0.239 993.1646 388.1465)">
				</image>
				
					<image overflow="visible" enable-background="new    " width="525" height="600" xlink:href="example/5033C76F712F15DD.png"  transform="matrix(0.2389 0 0 0.2389 1218.2897 361.7711)">
				</image>
			</g>
			<g id="DragSlot::G1">
				
					<image overflow="visible" enable-background="new    " width="375" height="188" xlink:href="example/5033C76F712F15DB.png"  transform="matrix(0.2374 0 0 0.2374 1493.7594 414.9603)">
				</image>
				
					<image overflow="visible" enable-background="new    " width="342" height="171" xlink:href="example/5033C76F712F15D5.png"  transform="matrix(0.2338 0 0 0.2338 1241.0156 603.6478)">
				</image>
			</g>
		</g>
		<g id="DragSlot::WinPop">
			
				<rect id="_x3C_Rectangle_x3E__1_" x="818.46" y="179.59" fill="#C1C2D3" stroke="#6B1E3E" stroke-miterlimit="10" width="923.08" height="720.81"/>
			<path id="ConnectLine::BackButton_2_" fill="#1E2668" d="M1280,855.74L1280,855.74c-35.84,0-64.89-29.05-64.89-64.89l0,0
				c0-35.84,29.05-64.89,64.89-64.89l0,0c35.84,0,64.89,29.05,64.89,64.89l0,0C1344.89,826.68,1315.84,855.74,1280,855.74z"/>
		</g>
	</g>
</g>
<g id="Page_x40_4">
	<g id="in::_x2A_::GameSet_x28_ConnectLine_x2C_succ_x29_">
		<g id="ConnectLine::LineGroup">
			<g id="ConnectLine::G3">
				<circle fill="#1E4268" cx="1589.34" cy="429.04" r="36.23"/>
				<circle fill="#1E4268" cx="977.99" cy="429.04" r="36.23"/>
			</g>
			<g id="ConnectLine::G2">
				<circle fill="#6B1E3E" cx="1589.34" cy="552.89" r="36.23"/>
				<circle fill="#6B1E3E" cx="977.99" cy="552.89" r="36.23"/>
			</g>
			<g id="ConnectLine::G1">
				<circle fill="#1F6638" cx="1589.34" cy="295.96" r="36.23"/>
				<circle fill="#1F6638" cx="977.99" cy="295.96" r="36.23"/>
			</g>
		</g>
		<g id="ConnectLine::WinPop_1_">
			
				<rect id="_x3C_Rectangle_x3E__2_" x="818.46" y="179.59" fill="#C1C2D3" stroke="#6B1E3E" stroke-miterlimit="10" width="923.08" height="720.81"/>
			<path id="ConnectLine::BackButton_1_" fill="#1E2668" d="M1280,855.74L1280,855.74c-35.84,0-64.89-29.05-64.89-64.89l0,0
				c0-35.84,29.05-64.89,64.89-64.89l0,0c35.84,0,64.89,29.05,64.89,64.89l0,0C1344.89,826.68,1315.84,855.74,1280,855.74z"/>
		</g>
	</g>
</g>
<g id="Page_x40_3">
	<g id="in::_x2A_::GameSet_x28_RadiationDrag_x2C_horizontal_x2C_0_x2C_1000_x29_">
		<rect x="760.79" y="392.42" fill="#009E47" width="100" height="100"/>
		<rect x="760.79" y="379.68" fill="#470099" width="100" height="100"/>
		<rect x="760.79" y="366.94" fill="#8C009B" width="100" height="100"/>
	</g>
</g>
<g id="Page_x40_2">
	<rect fill="#458464" width="2560" height="1080"/>
	<polygon id="in::lPoly" fill="#FFFFFF" points="1176.9,223.12 1088.62,223.12 1044.48,299.57 1088.62,376.02 1176.9,376.02 
		1221.04,299.57 	"/>
	<polygon id="in::rPoly::transition_x3D_ease_x2A_0.5" fill="#FFFFFF" points="1471.38,223.12 1383.1,223.12 1338.96,299.57 
		1383.1,376.02 1471.38,376.02 1515.52,299.57 	"/>
	
		<path id="in::ActClickHide_x28_lPoly_x2C_toggle_x29_::ActClickMove_x28_rPoly_x2C_0_x2C_-150_x2C_-150_x2C_toggle_x29_" fill="#FFFFFF" d="
		M1330.4,872.06h-100.8c-27.83,0-50.4-22.56-50.4-50.4l0,0c0-27.83,22.56-50.4,50.4-50.4h100.79c27.83,0,50.4,22.56,50.4,50.4l0,0
		C1380.79,849.5,1358.23,872.06,1330.4,872.06z"/>
	<text id="te" transform="matrix(1 0 0 1 770.3814 453.1299)" font-family="'MyriadPro-Regular'" font-size="38.1245px">ActClickHide(lPoly,toggle)</text>
	<text transform="matrix(1 0 0 1 1291.0347 453.1303)" font-family="'MyriadPro-Regular'" font-size="38.1245px">ActClickMove(rPoly,0,-150,-150,toggle)</text>
	<text transform="matrix(1 0 0 1 1291.0347 498.8803)" font-family="'MyriadPro-Regular'" font-size="38.1245px">::transition=ease*0.5</text>
</g>
<g id="Page_x40_1">
	<text id="text_1_" transform="matrix(1 0 0 1 1083.6057 854.9839)" font-family="'MyriadPro-Regular'" font-size="30.4871px">in::*::ActClickShow(pop,toggle)</text>
	<text id="text_2_" transform="matrix(1 0 0 1 1410.8411 445.1026)" font-family="'MyriadPro-Regular'" font-size="30.4871px">in::pop::transition=linear*0.5</text>
	
		<rect id="in::pop::transition_x3D_linear_x2A_0.5" x="1192.71" y="354.91" opacity="0.04" fill="#994D33" enable-background="new    " width="174.58" height="158.11"/>
	<polygon id="in::_x2A_::ActClickShow_x28_pop_x2C_toggle_x29_" fill="#994D33" points="1320.39,605.46 1239.61,605.46 
		1199.23,675.41 1239.61,745.36 1320.39,745.36 1360.77,675.41 	"/>
</g>
<g id="Page_x40_0">
	<rect id="background" fill="#60A582" width="2560" height="1080"/>
	
		<rect id="in::_x2A_::ActClickHide_x28_circleToHide_x2C_toggle_x29_" x="1003.34" y="362.13" fill="#FFFFFF" stroke="#000000" stroke-miterlimit="10" width="249.02" height="274.71"/>
	<path id="in::circleToHide::transition_x3D_linear_x2A_0.5" fill="#FFFFFF" stroke="#000000" stroke-miterlimit="10" d="
		M1459.88,636.84L1459.88,636.84c-68.77,0-124.51-55.75-124.51-124.51v-25.69c0-68.77,55.75-124.51,124.51-124.51l0,0
		c68.77,0,124.51,55.75,124.51,124.51v25.69C1584.39,581.1,1528.64,636.84,1459.88,636.84z"/>
	<polygon id="in::_x2A_::PageNext_x28__x29_" fill="#FFFFFF" points="1280,1080 1323.3,1005 1236.7,1005 	"/>
	
		<text id="text" transform="matrix(1 0 0 1 794.5885 702.1023)" fill="#FFFFFF" font-family="'MyriadPro-Regular'" font-size="30.4871px">in::*::ActClickHide(circleToHide,toggle)</text>
	<text transform="matrix(1 0 0 1 1381.3455 702.1025)" fill="#FFFFFF" font-family="'MyriadPro-Regular'" font-size="30.4871px">circleToHide</text>
</g>
<g id="General">
	<polygon id="in::_x2A_::PageNext_x28__x29_::NavHideAt_x28_5_x29_::NavShowAt_x28_4_x29_" fill="#4917AA" points="620.03,1080 
		648.9,1030 591.16,1030 	"/>
	<circle id="in::_x2A_::NavHideAt_x28_1_x29_" fill="#4917AA" cx="620.03" cy="540.47" r="28.23"/>
	<polygon id="in::_x2A_::PagePrev_x28__x29_::NavHideAt_x28_0_x29_::NavShowAt_x28_1_x29_" fill="#4917AA" points="620.03,0 
		590.08,51.87 649.98,51.87 	"/>
	<rect id="audio::succ::success.mp3" x="2517.24" y="23.21" fill="none" width="18.78" height="18.78"/>
	<rect id="audio::bgm::bgm.mp3" x="2517.24" y="50.88" fill="none" width="18.78" height="18.78"/>
	<rect id="audio::basic::drop.mp3_2_" x="2517.24" y="78.55" fill="none" width="18.78" height="18.78"/>
	<rect x="560" fill="none" stroke="#000000" stroke-miterlimit="10" width="1440" height="1080"/>
</g>
</svg>
