<?xml version="1.0" encoding="utf-8"?>
<!-- Generator: Adobe Illustrator 25.2.3, SVG Export Plug-In . SVG Version: 6.00 Build 0)  -->
<svg version="1.1" id="Layer_1" xmlns="http://www.w3.org/2000/svg" xmlns:xlink="http://www.w3.org/1999/xlink" x="0px" y="0px"
	 viewBox="0 0 2560 1080" enable-background="new 0 0 2560 1080" xml:space="preserve">
<g id="Page_x40_10">
	<g id="in::_x2A_::GameSet_x28_McConfirm_x2C_succ_x2C_fail_x29_">
		<polygon id="McConfirm::ConfirmButton" fill="#FFFFFF" stroke="#000000" stroke-miterlimit="10" points="1308.4,752 1339.2,814.5 
			1408,824.5 1358.2,873 1370,941.7 1308.4,909.3 1246.7,941.7 1258.5,873 1208.7,824.5 1277.6,814.5 		"/>
		<g id="McConfirm::SelectionGroup_2_">
			<g id="McConfirm::SeGroup_1_">
				<rect x="1154.9" y="158.6" fill="#8D93C6" stroke="#000000" stroke-miterlimit="10" width="249" height="148.9"/>
				<rect x="1175" y="158.6" fill="#1D2999" stroke="#000000" stroke-miterlimit="10" width="249" height="148.9"/>
			</g>
			<g id="McConfirm::SeGroup_2_">
				<rect x="1496.9" y="163.2" fill="#8D93C6" stroke="#000000" stroke-miterlimit="10" width="249" height="148.9"/>
				<rect x="1516.9" y="163.2" fill="#1D2999" stroke="#000000" stroke-miterlimit="10" width="249" height="148.9"/>
			</g>
			<g id="McConfirm::SeGroup">
				<rect x="829" y="163.2" fill="#8D93C6" stroke="#000000" stroke-miterlimit="10" width="249" height="148.9"/>
				<rect x="849.1" y="163.2" fill="#1D2999" stroke="#000000" stroke-miterlimit="10" width="249" height="148.9"/>
			</g>
			<g id="McConfirm::SeGroup::Correct_1_">
				<rect x="1154.9" y="387" fill="#8D93C6" stroke="#000000" stroke-miterlimit="10" width="249" height="148.9"/>
				<rect x="1175" y="387" fill="#1D2999" stroke="#000000" stroke-miterlimit="10" width="249" height="148.9"/>
			</g>
			<g id="McConfirm::SeGroup::Correct">
				<rect x="1496.9" y="391.6" fill="#8D93C6" stroke="#000000" stroke-miterlimit="10" width="249" height="148.9"/>
				<rect x="1516.9" y="391.6" fill="#1D2999" stroke="#000000" stroke-miterlimit="10" width="249" height="148.9"/>
			</g>
			<g id="McConfirm::SeGroup_3_">
				<rect x="829" y="391.6" fill="#8D93C6" stroke="#000000" stroke-miterlimit="10" width="249" height="148.9"/>
				<rect x="849.1" y="391.6" fill="#1D2999" stroke="#000000" stroke-miterlimit="10" width="249" height="148.9"/>
			</g>
		</g>
		<g id="McConfirm::FailPop">
			
				<rect id="_x3C_Rectangle_x3E__7_" x="818.5" y="179.6" fill="#D1C1C9" stroke="#6B1E3E" stroke-miterlimit="10" width="923.1" height="720.8"/>
			<path id="Mc::FailBackButton_2_" fill="#661F4B" d="M1279.9,855.8L1279.9,855.8c-35.8,0-64.9-29-64.9-64.9l0,0
				c0-35.8,29.1-64.9,64.9-64.9l0,0c35.8,0,64.9,29,64.9,64.9l0,0C1344.9,826.7,1315.9,855.8,1279.9,855.8z"/>
		</g>
		<g id="McConfirm::WinPop">
			
				<rect id="_x3C_Rectangle_x3E__1_" x="818.5" y="179.6" fill="#C1C2D3" stroke="#6B1E3E" stroke-miterlimit="10" width="923.1" height="720.8"/>
			<path id="Comparing::BackButton" fill="#1E2668" d="M1280,855.7L1280,855.7c-35.8,0-64.9-29-64.9-64.9l0,0
				c0-35.8,29.1-64.9,64.9-64.9l0,0c35.8,0,64.9,29,64.9,64.9l0,0C1344.9,826.7,1315.8,855.7,1280,855.7z"/>
		</g>
	</g>
</g>
<g id="Page_x40_9_1_">
	<g id="in::_x2A_::GameSet_x28_Comparing_x2C_succ_x29_">
		<g id="Comparing::Score_1_">
			
				<rect id="Comparing::S3" x="1280" y="963.6" fill="#555B93" stroke="#000000" stroke-miterlimit="10" width="191.1" height="59.9"/>
			
				<rect id="Comparing::S2_1_" x="1088.9" y="963.6" fill="#555B93" stroke="#000000" stroke-miterlimit="10" width="191.1" height="59.9"/>
			
				<rect id="Comparing::S1" x="897.9" y="963.6" fill="#555B93" stroke="#000000" stroke-miterlimit="10" width="191.1" height="59.9"/>
		</g>
		<g id="Comparing::PairGroup_1_">
			<g id="Comparing::Couple_5_">
				<rect id="ele1_5_" x="1419" y="137.3" fill="#AA57E5" stroke="#000000" stroke-miterlimit="10" width="191.1" height="181.8"/>
				<rect id="ele2_5_" x="936.8" y="249.4" fill="#555B93" stroke="#000000" stroke-miterlimit="10" width="191" height="181.8"/>
				
					<circle id="ele3_5_" fill="none" stroke="#E259A8" stroke-width="16" stroke-miterlimit="10" cx="1032.3" cy="340.4" r="105.4"/>
				
					<circle id="ele4_5_" fill="none" stroke="#E259A8" stroke-width="16" stroke-miterlimit="10" cx="1514.5" cy="228.2" r="105.4"/>
			</g>
			<g id="Comparing::Couple_4_">
				<rect id="ele1_4_" x="1545.5" y="364" fill="#AA57E5" stroke="#000000" stroke-miterlimit="10" width="191.1" height="181.8"/>
				
					<rect id="ele2_4_" x="1063.3" y="476.1" fill="#555B93" stroke="#000000" stroke-miterlimit="10" width="191.1" height="181.8"/>
				<circle id="ele3_4_" fill="none" stroke="#E259A8" stroke-width="16" stroke-miterlimit="10" cx="1158.8" cy="567" r="105.4"/>
				<circle id="ele4_4_" fill="none" stroke="#E259A8" stroke-width="16" stroke-miterlimit="10" cx="1641" cy="454.9" r="105.4"/>
			</g>
			<g id="Comparing::Couple_3_">
				
					<rect id="ele1_3_" x="1629.8" y="593.2" fill="#AA57E5" stroke="#000000" stroke-miterlimit="10" width="191.1" height="181.8"/>
				
					<rect id="ele2_3_" x="1147.6" y="705.3" fill="#555B93" stroke="#000000" stroke-miterlimit="10" width="191.1" height="181.8"/>
				
					<circle id="ele3_3_" fill="none" stroke="#E259A8" stroke-width="16" stroke-miterlimit="10" cx="1243.1" cy="796.2" r="105.4"/>
				
					<circle id="ele4_3_" fill="none" stroke="#E259A8" stroke-width="16" stroke-miterlimit="10" cx="1725.3" cy="684.1" r="105.4"/>
			</g>
		</g>
		<g id="Comparing::WinPop_1_">
			
				<rect id="_x3C_Rectangle_x3E__4_" x="818.5" y="179.6" fill="#C1C2D3" stroke="#6B1E3E" stroke-miterlimit="10" width="923.1" height="720.8"/>
			<path id="Comparing::BackButton_1_" fill="#1E2668" d="M1280,855.7L1280,855.7c-35.8,0-64.9-29-64.9-64.9l0,0
				c0-35.8,29.1-64.9,64.9-64.9l0,0c35.8,0,64.9,29,64.9,64.9l0,0C1344.9,826.7,1315.8,855.7,1280,855.7z"/>
		</g>
	</g>
</g>
<g id="Page_x40_8">
	<g id="in::_x2A_::GameSet_x28_Mc_x2C_succ_x2C_fail_x29__1_">
		<g id="Mc::AnswerGroup_1_">
			<g id="Mc::Answer_1_">
				<rect x="951.8" y="356.5" fill="#555B93" stroke="#000000" stroke-miterlimit="10" width="191" height="181.8"/>
				<text transform="matrix(1 0 0 1 1047.359 459.321)" font-family="'MyriadPro-Regular'" font-size="53.0049px">A</text>
			</g>
			<g id="Mc::Wrong_7_">
				<rect x="1228.5" y="319.7" fill="#555B93" stroke="#000000" stroke-miterlimit="10" width="191.1" height="181.8"/>
				<text transform="matrix(1 0 0 1 1324.05 422.4289)" font-family="'MyriadPro-Regular'" font-size="53.0049px">B</text>
			</g>
			<g id="Mc::Wrong_6_">
				<rect x="1444.6" y="376.3" fill="#555B93" stroke="#000000" stroke-miterlimit="10" width="191.1" height="181.8"/>
				<text transform="matrix(1 0 0 1 1540.1326 479.0847)" font-family="'MyriadPro-Regular'" font-size="53.0049px">C</text>
			</g>
			<g id="Mc::Wrong_5_">
				<rect x="1635.7" y="174.7" fill="#555B93" stroke="#000000" stroke-miterlimit="10" width="191.1" height="181.8"/>
				<text transform="matrix(1 0 0 1 1731.1812 277.4955)" font-family="'MyriadPro-Regular'" font-size="53.0049px">D</text>
			</g>
			<g id="Mc::Wrong_4_">
				<rect x="1755.6" y="410.6" fill="#555B93" stroke="#000000" stroke-miterlimit="10" width="191.1" height="181.8"/>
				<text transform="matrix(1 0 0 1 1851.0806 513.3417)" font-family="'MyriadPro-Regular'" font-size="53.0049px">E</text>
			</g>
		</g>
		<g id="Mc::FailPop_1_">
			
				<rect id="_x3C_Rectangle_x3E__6_" x="908.6" y="175.3" fill="#D1C1C9" stroke="#6B1E3E" stroke-miterlimit="10" width="923.1" height="720.8"/>
			<path id="Mc::FailBackButton_1_" fill="#661F4B" d="M1370.1,851.5L1370.1,851.5c-35.8,0-64.9-29-64.9-64.9l0,0
				c0-35.8,29.1-64.9,64.9-64.9l0,0c35.8,0,64.9,29,64.9,64.9l0,0C1435,822.4,1406,851.5,1370.1,851.5z"/>
		</g>
		<g id="Mc::WinPop_2_">
			
				<rect id="_x3C_Rectangle_x3E__5_" x="908.6" y="175.3" fill="#C1C2D3" stroke="#6B1E3E" stroke-miterlimit="10" width="923.1" height="720.8"/>
			<g>
				<rect id="in::k1_1_" x="1034" y="253" fill="#3345EF" fill-opacity="0" width="523" height="84"/>
				<polygon id="in::_x2A_::ActClickShow_x28_k1_x29_::ActClickShow_x28_k2b_x29_" fill="#3345EF" points="1683,296.3 1608,253 
					1608,339.6 				"/>
				<rect id="in::k2" x="1034" y="385" fill="#3345EF" fill-opacity="0" width="523" height="84"/>
				<polygon id="in::k2b::ActClickShow_x28_k2_x29_::ActClickShow_x28_k3b_x29_" fill="#3345EF" fill-opacity="0" points="
					1683,428.3 1608,385 1608,471.6 				"/>
				<rect id="in::k3" x="1034" y="517" fill="#3345EF" fill-opacity="0" width="523" height="84"/>
				<polygon id="in::k3b::ActClickShow_x28_k3_x29_" fill="#3345EF" fill-opacity="0" points="1683,560.3 1608,517 1608,603.6 				
					"/>
			</g>
			<path id="Mc::SuccBackButton_1_" fill="#1E2668" d="M1370.1,851.5L1370.1,851.5c-35.8,0-64.9-29-64.9-64.9l0,0
				c0-35.8,29.1-64.9,64.9-64.9l0,0c35.8,0,64.9,29,64.9,64.9l0,0C1435,822.4,1406,851.5,1370.1,851.5z"/>
		</g>
	</g>
</g>
<g id="Page_x40_7">
	
		<image overflow="visible" enable-background="new    " width="4471" height="2975" xlink:href="example/ED692EE756160780.png"  transform="matrix(0.2397 0 0 0.2397 744.12 183.4791)">
	</image>
	<g id="in::_x2A_::GameSet_x28_DragSlot_x2C_succ_x29_">
		<g id="DragSlot::DragGroup">
			<g id="DragSlot::G6">
				
					<image overflow="visible" enable-background="new    " width="300" height="421" xlink:href="example/ED692EE756160781.png"  transform="matrix(0.2378 0 0 0.2378 997.8916 533.3854)">
				</image>
				
					<image overflow="visible" enable-background="new    " width="483" height="683" xlink:href="example/ED692EE756160787.png"  transform="matrix(0.2391 0 0 0.2391 1223.2498 633.2965)">
				</image>
			</g>
			<g id="DragSlot::G5">
				
					<image overflow="visible" enable-background="new    " width="308" height="438" xlink:href="example/ED692EE756160782.png"  transform="matrix(0.2378 0 0 0.2378 1505.625 676.0906)">
				</image>
				
					<image overflow="visible" enable-background="new    " width="342" height="483" xlink:href="example/ED692EE756160783.png"  transform="matrix(0.2366 0 0 0.2366 1240.5399 498.819)">
				</image>
			</g>
			<g id="DragSlot::G4">
				
					<image overflow="visible" enable-background="new    " width="204" height="417" xlink:href="example/ED692EE75616078E.png"  transform="matrix(0.2363 0 0 0.2363 1015.4578 681.7723)">
				</image>
				
					<image overflow="visible" enable-background="new    " width="288" height="575" xlink:href="example/ED692EE75616078F.png"  transform="matrix(0.2385 0 0 0.2385 1313.9758 519.551)">
				</image>
			</g>
			<g id="DragSlot::G3">
				
					<image overflow="visible" enable-background="new    " width="200" height="404" xlink:href="example/ED692EE756160784.png"  transform="matrix(0.2371 0 0 0.2371 1511.9252 535.5359)">
				</image>
				
					<image overflow="visible" enable-background="new    " width="283" height="575" xlink:href="example/ED692EE756160785.png"  transform="matrix(0.2388 0 0 0.2388 1179.2852 519.4556)">
				</image>
			</g>
			<g id="DragSlot::G2">
				
					<image overflow="visible" enable-background="new    " width="338" height="383" xlink:href="example/5033C76F712F15DF.png"  transform="matrix(0.239 0 0 0.239 993.1646 388.1465)">
				</image>
				
					<image overflow="visible" enable-background="new    " width="525" height="600" xlink:href="example/5033C76F712F15DD.png"  transform="matrix(0.2389 0 0 0.2389 1218.2897 361.7711)">
				</image>
			</g>
			<g id="DragSlot::G1">
				
					<image overflow="visible" enable-background="new    " width="375" height="188" xlink:href="example/5033C76F712F15DB.png"  transform="matrix(0.2374 0 0 0.2374 1493.7594 414.9603)">
				</image>
				
					<image overflow="visible" enable-background="new    " width="342" height="171" xlink:href="example/5033C76F712F15D5.png"  transform="matrix(0.2338 0 0 0.2338 1241.0156 603.6478)">
				</image>
			</g>
		</g>
		<g id="DragSlot::WinPop_1_">
			
				<rect id="_x3C_Rectangle_x3E__3_" x="818.5" y="179.6" fill="#C1C2D3" stroke="#6B1E3E" stroke-miterlimit="10" width="923.1" height="720.8"/>
			<path id="ConnectLine::BackButton_3_" fill="#1E2668" d="M1280,855.7L1280,855.7c-35.8,0-64.9-29-64.9-64.9l0,0
				c0-35.8,29.1-64.9,64.9-64.9l0,0c35.8,0,64.9,29,64.9,64.9l0,0C1344.9,826.7,1315.8,855.7,1280,855.7z"/>
		</g>
	</g>
</g>
<g id="Page_x40_6_1_">
	<g id="in::_x2A_::GameSet_x28_ConnectLine_x2C_succ_x29_">
		<g id="ConnectLine::LineGroup">
			<g id="ConnectLine::G3">
				<circle fill="#1E4268" cx="1589.3" cy="429" r="36.2"/>
				<circle fill="#1E4268" cx="978" cy="429" r="36.2"/>
			</g>
			<g id="ConnectLine::G2">
				<circle fill="#6B1E3E" cx="1589.3" cy="552.9" r="36.2"/>
				<circle fill="#6B1E3E" cx="978" cy="552.9" r="36.2"/>
			</g>
			<g id="ConnectLine::G1">
				<circle fill="#1F6638" cx="1589.3" cy="296" r="36.2"/>
				<circle fill="#1F6638" cx="978" cy="296" r="36.2"/>
			</g>
		</g>
		<g id="ConnectLine::WinPop_1_">
			
				<rect id="_x3C_Rectangle_x3E__2_" x="818.5" y="179.6" fill="#C1C2D3" stroke="#6B1E3E" stroke-miterlimit="10" width="923.1" height="720.8"/>
			<path id="ConnectLine::BackButton_1_" fill="#1E2668" d="M1280,855.7L1280,855.7c-35.8,0-64.9-29-64.9-64.9l0,0
				c0-35.8,29.1-64.9,64.9-64.9l0,0c35.8,0,64.9,29,64.9,64.9l0,0C1344.9,826.7,1315.8,855.7,1280,855.7z"/>
		</g>
	</g>
</g>
<g id="Page_x40_5">
	<g id="in::_x2A_::GameSet_x28_RadiationDrag_x2C_horizontal_x2C_0_x2C_1000_x29_">
		<rect x="760.8" y="392.4" fill="#009E47" width="100" height="100"/>
		<rect x="760.8" y="379.7" fill="#470099" width="100" height="100"/>
		<rect x="760.8" y="366.9" fill="#8C009B" width="100" height="100"/>
	</g>
</g>
<g id="Page_x40_4">
	
		<rect id="in::_x2A_::ActClickSound_x28_succ_x29_" x="1092.9" y="443.5" fill="#3F2377" stroke="#000000" stroke-miterlimit="10" width="374.2" height="193"/>
	
		<text id="ActClickSound_x28__x29_" transform="matrix(1 0 0 1 1166.2615 725.2295)" font-family="'MyriadPro-Regular'" font-size="32.5576px">AddClickSound()</text>
</g>
<g id="Page_x40_3_1_">
	<rect fill="#458464" width="2560" height="1080"/>
	<polygon id="in::lPoly" fill="#FFFFFF" points="1176.9,223.1 1088.6,223.1 1044.5,299.6 1088.6,376 1176.9,376 1221,299.6 	"/>
	<polygon id="in::rPoly::transition_x3D_ease_x2A_0.5" fill="#FFFFFF" points="1471.4,223.1 1383.1,223.1 1339,299.6 1383.1,376 
		1471.4,376 1515.5,299.6 	"/>
	
		<path id="in::ActClickHide_x28_lPoly_x2C_toggle_x29_::ActClickMove_x28_rPoly_x2C_0_x2C_-150_x2C_-150_x2C_toggle_x29_" fill="#FFFFFF" d="
		M1330.4,872.1h-100.8c-27.8,0-50.4-22.6-50.4-50.4l0,0c0-27.8,22.6-50.4,50.4-50.4h100.8c27.8,0,50.4,22.6,50.4,50.4l0,0
		C1380.8,849.5,1358.2,872.1,1330.4,872.1z"/>
	<text id="te" transform="matrix(1 0 0 1 770.3814 453.1299)" font-family="'MyriadPro-Regular'" font-size="38.1245px">ActClickHide(lPoly,toggle)</text>
	<text transform="matrix(1 0 0 1 1291.0347 453.1303)" font-family="'MyriadPro-Regular'" font-size="38.1245px">ActClickMove(rPoly,0,-150,-150,toggle)</text>
	<text transform="matrix(1 0 0 1 1291.0347 498.8803)" font-family="'MyriadPro-Regular'" font-size="38.1245px">::transition=ease*0.5</text>
</g>
<g id="Page_x40_2_1_">
	<text id="text_1_" transform="matrix(1 0 0 1 1083.6057 854.9839)" font-family="'MyriadPro-Regular'" font-size="30.4871px">in::*::ActClickShow(pop,toggle)</text>
	<text id="text_2_" transform="matrix(1 0 0 1 1410.8411 445.1026)" font-family="'MyriadPro-Regular'" font-size="30.4871px">in::pop::transition=linear*0.5</text>
	<text id="text_3_" transform="matrix(1 0 0 1 1367.3002 292.4277)" font-family="'MyriadPro-Regular'" font-size="30.4871px">in::PlayOnMove</text>
	<text id="text_4_" transform="matrix(1 0 0 1 890.6876 292.4277)" font-family="'MyriadPro-Regular'" font-size="30.4871px">in::PlayOnShow</text>
	
		<rect id="in::pop::transition_x3D_linear_x2A_0.5" x="1192.7" y="354.9" opacity="4.000000e-02" fill="#994D33" enable-background="new    " width="174.6" height="158.1"/>
	<polygon id="in::_x2A_::ActClickShow_x28_pop_x2C_toggle_x29_" fill="#994D33" points="1320.4,605.5 1239.6,605.5 1199.2,675.4 
		1239.6,745.4 1320.4,745.4 1360.8,675.4 	"/>
	
		<rect id="in::_x2A_::PlayOnShow_x28__x29_::transition_x3D_linear_x2A_1" x="890.7" y="90.1" fill="#994D33" width="177.7" height="150.2"/>
	
		<rect id="in::_x2A_::PlayOnMove_x28_800_x2C_0_x2C_90_x29_::transition_x3D_ease_x2A_1" x="1367.3" y="96.7" fill="#994D33" width="224.3" height="159.4"/>
</g>
<g id="Page_x40_1">
	<rect fill="#1C9188" width="2560" height="1080"/>
	<path id="in::_x2A_::ActClickAnimate_x28_losePop_x29_" fill="#25BAAF" d="M1009.1,528.6h88.6c32.3,0,58.4,26.2,58.4,58.4v88.6
		c0,32.3-26.2,58.4-58.4,58.4h-88.6c-32.3,0-58.4-26.2-58.4-58.4V587C950.7,554.7,976.8,528.6,1009.1,528.6z"/>
	
		<image overflow="visible" width="1326" height="829" id="animate::losePop::time_x3D_9999" xlink:href="example/i02.gif"  transform="matrix(0.3169 0 0 0.3169 1306.8 499.9722)">
	</image>
	<image overflow="visible" width="273" height="230" xlink:href="example/i01.gif"  transform="matrix(1 0 0 1 1305.1333 150.6)">
	</image>
	<text transform="matrix(1 0 0 1 1007.8998 295.4836)" font-family="'MyriadPro-Regular'" font-size="54.6173px">direct Gif</text>
	<text transform="matrix(1 0 0 1 967.8977 810.0897)" font-family="'MyriadPro-Regular'" font-size="54.6173px">Play Gif</text>
</g>
<g id="Page_x40_0" display="none">
	<rect id="background" display="inline" fill="#60A582" width="2560" height="1080"/>
	
		<rect id="in::_x2A_::ActClickHide_x28_circleToHide_x2C_toggle_x29_::ActClickShow_x28_pButton_x29_" x="1003.3" y="362.1" display="inline" fill="#FFFFFF" stroke="#000000" stroke-miterlimit="10" width="249" height="274.7"/>
	
		<path id="in::circleToHide::transition_x3D_linear_x2A_0.5" display="inline" fill="#FFFFFF" stroke="#000000" stroke-miterlimit="10" d="
		M1459.9,636.8L1459.9,636.8c-68.8,0-124.5-55.8-124.5-124.5v-25.7c0-68.8,55.8-124.5,124.5-124.5l0,0
		c68.8,0,124.5,55.8,124.5,124.5v25.7C1584.4,581.1,1528.6,636.8,1459.9,636.8z"/>
	
		<polygon id="in::pButton::PageNext_x28__x29_" display="inline" opacity="5.000000e-02" fill="#FFFFFF" enable-background="new    " points="
		1280,1080 1323.3,1005 1236.7,1005 	"/>
	
		<text id="e" transform="matrix(1 0 0 1 794.5885 702.1023)" display="inline" fill="#FFFFFF" font-family="'MyriadPro-Regular'" font-size="30.4871px">in::*::ActClickHide(circleToHide,toggle)</text>
	
		<text transform="matrix(1 0 0 1 1381.3455 702.1025)" display="inline" fill="#FFFFFF" font-family="'MyriadPro-Regular'" font-size="30.4871px">circleToHide</text>
</g>
<g id="General">
	<polygon id="in::_x2A_::PageNext_x28__x29_::NavAtRange_x28_0_x2C_9_x29_" fill="#4917AA" points="620,1080 648.9,1030 591.2,1030 
			"/>
	<circle id="in::_x2A_::NavHideAt_x28_1_x29_" fill="#4917AA" cx="620" cy="540.5" r="28.2"/>
	<polygon id="in::_x2A_::PagePrev_x28__x29_::NavHideAt_x28_0_x29_::NavShowAt_x28_1_x29_" fill="#4917AA" points="620,0 
		590.1,51.9 650,51.9 	"/>
	<rect id="pageConfig::transition::ease_x2A_0.4" x="2517.2" y="23.2" fill="none" width="18.8" height="18.8"/>
	<rect id="pageConfig::transitionMode::topDownScroll" x="2517.2" y="31" fill="none" width="18.8" height="18.8"/>
	<rect id="audio::succ::success.mp3_1_" x="2517.2" y="49.7" fill="none" width="18.8" height="18.8"/>
	<rect id="audio::fail::fail.mp3" x="2517.2" y="50.9" fill="none" width="18.8" height="18.8"/>
	<rect id="audio::bgm::bgm.mp3_1_" x="2517.2" y="54.8" fill="none" width="18.8" height="18.8"/>
	<rect id="audio::basic::drop.mp3_2_" x="2517.2" y="78.6" fill="none" width="18.8" height="18.8"/>
	<rect x="560" fill="none" stroke="#000000" stroke-miterlimit="10" width="1440" height="1080"/>
</g>
</svg>
